# xmcd CD database file
#
# Track frame offsets:
#	207
#	11277
#	21838
#	36628
#	47884
#	59740
#	73441
#	90547
#	106912
#	121521
#	130451
#	152678
#	169252
#	180092
#	192208
#	204396
#	215618
#	226152
#	238216
#	244050
#	257448
#	274237
#	288912
#	300439
#	309283
#	319748
#	333812
#
# Disc length: 4571 seconds
#
# Revision: 0
# Processed by: cddbd v1.4PL0 Copyright (c) Steve Scherf et al.
# Submitted via: Feurio! 1.66 - http://www.feurio.com
#
DISCID=7911d91b
DTITLE=Johnny Cash - Story Songs Vol. 1
DYEAR=2003
DGENRE=Country
TTITLE0=??? - Appalachian Pride
TTITLE1=??? - Shantytown
TTITLE2=??? - Sweet Betzy from Pike
TTITLE3=??? - Saturday Night in Hickman County
TTITLE4=??? - Take me home
TTITLE5=??? - The Folk Singer
TTITLE6=??? - Ben Dewberry's Final Run
TTITLE7=??? - Dorraine of Ponchatrain
TTITLE8=??? - Danny Boy
TTITLE9=??? - Big Balls in Nashville
TTITLE10=??? - She Came From The Mountains
TTITLE11=??? - My Grandfather's Clock
TTITLE12=??? - Old Egg-Sucking Dog
TTITLE13=??? - Once Before I Die
TTITLE14=??? - Six White Horses
TTITLE15=??? - The Frozen Fair-To-Middlin' Cotton Picking Man
TTITLE16=??? - Cotton-Pickin' Hands
TTITLE17=??? - I Ride An Old Paint
TTITLE18=??? - Why a Fire-Engine's Red
TTITLE19=??? - Stampede
TTITLE20=??? - The Very Biggest Circus Of Them All
TTITLE21=??? - Sam Hall
TTITLE22=??? - A Letter from Home
TTITLE23=??? - Rosanna's Going Wild
TTITLE24=??? - The Frozen Logger
TTITLE25=??? - Foolish Questions
TTITLE26=??? - Flushed From The Bathroom Of Your Heart
EXTD=(c)2003\r\n
EXTT0=
EXTT1=
EXTT2=
EXTT3=
EXTT4=
EXTT5=
EXTT6=
EXTT7=
EXTT8=
EXTT9=
EXTT10=
EXTT11=
EXTT12=
EXTT13=
EXTT14=
EXTT15=
EXTT16=
EXTT17=
EXTT18=
EXTT19=
EXTT20=
EXTT21=
EXTT22=
EXTT23=
EXTT24=
EXTT25=
EXTT26=
PLAYORDER=
